<svg xmlns="http://www.w3.org/2000/svg" xmlns:xlink="http://www.w3.org/1999/xlink" width="861" zoomAndPan="magnify" viewBox="222 530 861 238" height="238" preserveAspectRatio="xMidYMid meet" version="1.0"><defs><g/><clipPath id="925f4b966e"><path d="M 242 550.492188 L 402 550.492188 L 402 637 L 242 637 Z M 242 550.492188 " clip-rule="nonzero"/></clipPath><clipPath id="068f37327f"><path d="M 398.96875 588.738281 C 402.609375 590.519531 401.371094 596.003906 397.316406 596.039062 C 397.316406 596.039062 323.523438 596.039062 323.523438 596.039062 C 321.402344 596.039062 319.683594 597.761719 319.683594 599.886719 L 319.683594 632.765625 C 319.683594 634.890625 317.960938 636.613281 315.839844 636.613281 L 245.890625 636.613281 C 243.769531 636.613281 242.050781 634.890625 242.050781 632.765625 L 242.050781 596.914062 C 242.050781 595.539062 242.785156 594.265625 243.976562 593.582031 L 317.917969 551.003906 C 319.023438 550.367188 320.371094 550.320312 321.515625 550.882812 Z M 398.96875 588.738281 " clip-rule="nonzero"/></clipPath><linearGradient x1="214.161114" gradientTransform="matrix(0.0876853, 0, 0, 0.0878176, 242.049553, 550.492566)" y1="1194.839018" x2="1620.043167" gradientUnits="userSpaceOnUse" y2="-211.055255" id="1fbe78bce0"><stop stop-opacity="1" stop-color="rgb(0%, 0%, 0%)" offset="0"/><stop stop-opacity="1" stop-color="rgb(0%, 0%, 0%)" offset="0.0078125"/><stop stop-opacity="1" stop-color="rgb(0.239563%, 0%, 0.463867%)" offset="0.0117188"/><stop stop-opacity="1" stop-color="rgb(0.480652%, 0%, 0.92926%)" offset="0.015625"/><stop stop-opacity="1" stop-color="rgb(0.770569%, 0%, 1.487732%)" offset="0.0195312"/><stop stop-opacity="1" stop-color="rgb(1.060486%, 0%, 2.046204%)" offset="0.0234375"/><stop stop-opacity="1" stop-color="rgb(1.350403%, 0%, 2.604675%)" offset="0.0273437"/><stop stop-opacity="1" stop-color="rgb(1.64032%, 0%, 3.164673%)" offset="0.03125"/><stop stop-opacity="1" stop-color="rgb(1.930237%, 0%, 3.723145%)" offset="0.0351563"/><stop stop-opacity="1" stop-color="rgb(2.220154%, 0%, 4.281616%)" offset="0.0390625"/><stop stop-opacity="1" stop-color="rgb(2.508545%, 0%, 4.840088%)" offset="0.0429688"/><stop stop-opacity="1" stop-color="rgb(2.798462%, 0%, 5.400085%)" offset="0.046875"/><stop stop-opacity="1" stop-color="rgb(3.088379%, 0%, 5.958557%)" offset="0.0507812"/><stop stop-opacity="1" stop-color="rgb(3.378296%, 0%, 6.517029%)" offset="0.0546875"/><stop stop-opacity="1" stop-color="rgb(3.668213%, 0%, 7.0755%)" offset="0.0585938"/><stop stop-opacity="1" stop-color="rgb(3.95813%, 0%, 7.635498%)" offset="0.0625"/><stop stop-opacity="1" stop-color="rgb(4.246521%, 0%, 8.19397%)" offset="0.0664062"/><stop stop-opacity="1" stop-color="rgb(4.536438%, 0%, 8.752441%)" offset="0.0703125"/><stop stop-opacity="1" stop-color="rgb(4.826355%, 0%, 9.310913%)" offset="0.0742188"/><stop stop-opacity="1" stop-color="rgb(5.116272%, 0%, 9.870911%)" offset="0.078125"/><stop stop-opacity="1" stop-color="rgb(5.374146%, 0%, 10.374451%)" offset="0.0820313"/><stop stop-opacity="1" stop-color="rgb(5.633545%, 0%, 10.879517%)" offset="0.0859375"/><stop stop-opacity="1" stop-color="rgb(5.836487%, 0%, 11.2854%)" offset="0.0898438"/><stop stop-opacity="1" stop-color="rgb(6.040955%, 0%, 11.691284%)" offset="0.09375"/><stop stop-opacity="1" stop-color="rgb(6.243896%, 0%, 12.097168%)" offset="0.0976562"/><stop stop-opacity="1" stop-color="rgb(6.448364%, 0%, 12.504578%)" offset="0.101562"/><stop stop-opacity="1" stop-color="rgb(6.651306%, 0%, 12.910461%)" offset="0.105469"/><stop stop-opacity="1" stop-color="rgb(6.854248%, 0%, 13.316345%)" offset="0.109375"/><stop stop-opacity="1" stop-color="rgb(7.05719%, 0%, 13.722229%)" offset="0.113281"/><stop stop-opacity="1" stop-color="rgb(7.261658%, 0%, 14.129639%)" offset="0.117188"/><stop stop-opacity="1" stop-color="rgb(7.4646%, 0%, 14.535522%)" offset="0.121094"/><stop stop-opacity="1" stop-color="rgb(7.667542%, 0%, 14.941406%)" offset="0.125"/><stop stop-opacity="1" stop-color="rgb(7.870483%, 0%, 15.34729%)" offset="0.128906"/><stop stop-opacity="1" stop-color="rgb(8.074951%, 0%, 15.7547%)" offset="0.132813"/><stop stop-opacity="1" stop-color="rgb(8.277893%, 0%, 16.160583%)" offset="0.136719"/><stop stop-opacity="1" stop-color="rgb(8.480835%, 0%, 16.566467%)" offset="0.140625"/><stop stop-opacity="1" stop-color="rgb(8.683777%, 0%, 16.972351%)" offset="0.144531"/><stop stop-opacity="1" stop-color="rgb(8.888245%, 0%, 17.379761%)" offset="0.148438"/><stop stop-opacity="1" stop-color="rgb(9.091187%, 0%, 17.785645%)" offset="0.152344"/><stop stop-opacity="1" stop-color="rgb(9.294128%, 0%, 18.191528%)" offset="0.15625"/><stop stop-opacity="1" stop-color="rgb(9.49707%, 0%, 18.597412%)" offset="0.160156"/><stop stop-opacity="1" stop-color="rgb(9.701538%, 0%, 19.004822%)" offset="0.164063"/><stop stop-opacity="1" stop-color="rgb(9.90448%, 0%, 19.410706%)" offset="0.167969"/><stop stop-opacity="1" stop-color="rgb(10.107422%, 0%, 19.816589%)" offset="0.171875"/><stop stop-opacity="1" stop-color="rgb(10.273743%, 0%, 20.137024%)" offset="0.175781"/><stop stop-opacity="1" stop-color="rgb(10.440063%, 0%, 20.457458%)" offset="0.179688"/><stop stop-opacity="1" stop-color="rgb(10.594177%, 0%, 20.751953%)" offset="0.183594"/><stop stop-opacity="1" stop-color="rgb(10.749817%, 0%, 21.046448%)" offset="0.1875"/><stop stop-opacity="1" stop-color="rgb(10.905457%, 0%, 21.340942%)" offset="0.191406"/><stop stop-opacity="1" stop-color="rgb(11.061096%, 0%, 21.635437%)" offset="0.195313"/><stop stop-opacity="1" stop-color="rgb(11.21521%, 0%, 21.929932%)" offset="0.199219"/><stop stop-opacity="1" stop-color="rgb(11.37085%, 0%, 22.225952%)" offset="0.203125"/><stop stop-opacity="1" stop-color="rgb(11.524963%, 0%, 22.520447%)" offset="0.207031"/><stop stop-opacity="1" stop-color="rgb(11.680603%, 0%, 22.814941%)" offset="0.210938"/><stop stop-opacity="1" stop-color="rgb(11.836243%, 0%, 23.109436%)" offset="0.214844"/><stop stop-opacity="1" stop-color="rgb(11.991882%, 0%, 23.405457%)" offset="0.21875"/><stop stop-opacity="1" stop-color="rgb(12.145996%, 0%, 23.699951%)" offset="0.222656"/><stop stop-opacity="1" stop-color="rgb(12.301636%, 0%, 23.994446%)" offset="0.226563"/><stop stop-opacity="1" stop-color="rgb(12.45575%, 0%, 24.28894%)" offset="0.230469"/><stop stop-opacity="1" stop-color="rgb(12.611389%, 0%, 24.584961%)" offset="0.234375"/><stop stop-opacity="1" stop-color="rgb(12.767029%, 0%, 24.879456%)" offset="0.238281"/><stop stop-opacity="1" stop-color="rgb(12.922668%, 0%, 25.17395%)" offset="0.242188"/><stop stop-opacity="1" stop-color="rgb(13.076782%, 0%, 25.468445%)" offset="0.246094"/><stop stop-opacity="1" stop-color="rgb(13.232422%, 0%, 25.764465%)" offset="0.25"/><stop stop-opacity="1" stop-color="rgb(13.386536%, 0%, 26.05896%)" offset="0.253906"/><stop stop-opacity="1" stop-color="rgb(13.542175%, 0%, 26.353455%)" offset="0.257813"/><stop stop-opacity="1" stop-color="rgb(13.697815%, 0%, 26.647949%)" offset="0.261719"/><stop stop-opacity="1" stop-color="rgb(13.853455%, 0%, 26.94397%)" offset="0.265625"/><stop stop-opacity="1" stop-color="rgb(13.998413%, 0%, 27.218628%)" offset="0.269531"/><stop stop-opacity="1" stop-color="rgb(14.143372%, 0%, 27.494812%)" offset="0.273438"/><stop stop-opacity="1" stop-color="rgb(14.230347%, 0%, 27.656555%)" offset="0.28125"/><stop stop-opacity="1" stop-color="rgb(14.404297%, 0%, 27.978516%)" offset="0.289062"/><stop stop-opacity="1" stop-color="rgb(14.576721%, 0%, 28.302002%)" offset="0.296875"/><stop stop-opacity="1" stop-color="rgb(14.750671%, 0%, 28.625488%)" offset="0.304688"/><stop stop-opacity="1" stop-color="rgb(14.924622%, 0%, 28.947449%)" offset="0.3125"/><stop stop-opacity="1" stop-color="rgb(15.098572%, 0%, 29.270935%)" offset="0.320313"/><stop stop-opacity="1" stop-color="rgb(15.270996%, 0%, 29.594421%)" offset="0.328125"/><stop stop-opacity="1" stop-color="rgb(15.444946%, 0%, 29.916382%)" offset="0.335938"/><stop stop-opacity="1" stop-color="rgb(15.618896%, 0%, 30.239868%)" offset="0.34375"/><stop stop-opacity="1" stop-color="rgb(15.791321%, 0%, 30.563354%)" offset="0.348777"/><stop stop-opacity="1" stop-color="rgb(15.878296%, 0%, 30.725098%)" offset="0.351563"/><stop stop-opacity="1" stop-color="rgb(15.965271%, 0%, 30.885315%)" offset="0.359375"/><stop stop-opacity="1" stop-color="rgb(16.139221%, 0%, 31.208801%)" offset="0.367188"/><stop stop-opacity="1" stop-color="rgb(16.313171%, 0%, 31.532288%)" offset="0.375"/><stop stop-opacity="1" stop-color="rgb(16.485596%, 0%, 31.854248%)" offset="0.382813"/><stop stop-opacity="1" stop-color="rgb(16.659546%, 0%, 32.177734%)" offset="0.390625"/><stop stop-opacity="1" stop-color="rgb(16.816711%, 0%, 32.472229%)" offset="0.398438"/><stop stop-opacity="1" stop-color="rgb(16.929626%, 0%, 32.688904%)" offset="0.40625"/><stop stop-opacity="1" stop-color="rgb(17.053223%, 0%, 32.937622%)" offset="0.421875"/><stop stop-opacity="1" stop-color="rgb(17.219543%, 0%, 33.268738%)" offset="0.4375"/><stop stop-opacity="1" stop-color="rgb(17.384338%, 0%, 33.601379%)" offset="0.453125"/><stop stop-opacity="1" stop-color="rgb(17.550659%, 0%, 33.932495%)" offset="0.46875"/><stop stop-opacity="1" stop-color="rgb(17.71698%, 0%, 34.263611%)" offset="0.484375"/><stop stop-opacity="1" stop-color="rgb(17.881775%, 0%, 34.594727%)" offset="0.5"/><stop stop-opacity="1" stop-color="rgb(18.048096%, 0%, 34.925842%)" offset="0.515625"/><stop stop-opacity="1" stop-color="rgb(18.212891%, 0%, 35.256958%)" offset="0.53125"/><stop stop-opacity="1" stop-color="rgb(18.388367%, 0%, 35.594177%)" offset="0.5625"/><stop stop-opacity="1" stop-color="rgb(18.565369%, 0%, 35.891724%)" offset="0.625"/><stop stop-opacity="1" stop-color="rgb(18.737793%, 0%, 36.146545%)" offset="0.651223"/><stop stop-opacity="1" stop-color="rgb(18.823242%, 0%, 36.273193%)" offset="0.6875"/><stop stop-opacity="1" stop-color="rgb(18.908691%, 0%, 36.399841%)" offset="0.75"/><stop stop-opacity="1" stop-color="rgb(19.107056%, 0%, 36.69281%)" offset="1"/></linearGradient><clipPath id="3f812a1306"><path d="M 346 568 L 506 568 L 506 654.742188 L 346 654.742188 Z M 346 568 " clip-rule="nonzero"/></clipPath><clipPath id="5c03b891ad"><path d="M 348.222656 616.496094 C 344.582031 614.71875 345.820312 609.230469 349.875 609.195312 C 349.875 609.195312 423.667969 609.195312 423.667969 609.195312 C 425.789062 609.195312 427.507812 607.472656 427.507812 605.347656 L 427.507812 572.46875 C 427.507812 570.34375 429.230469 568.621094 431.351562 568.621094 L 501.300781 568.621094 C 503.421875 568.621094 505.140625 570.34375 505.140625 572.46875 L 505.140625 608.320312 C 505.140625 609.699219 504.40625 610.96875 503.214844 611.65625 L 429.273438 654.230469 C 428.167969 654.867188 426.816406 654.914062 425.671875 654.351562 Z M 348.222656 616.496094 " clip-rule="nonzero"/></clipPath><linearGradient x1="1380.358222" gradientTransform="matrix(0.0876853, 0, 0, 0.0878176, 242.049553, 550.492566)" y1="1398.169788" x2="2786.246023" gradientUnits="userSpaceOnUse" y2="-7.706014" id="aa30321763"><stop stop-opacity="1" stop-color="rgb(0%, 0%, 0%)" offset="0"/><stop stop-opacity="1" stop-color="rgb(0%, 0%, 0%)" offset="0.125"/><stop stop-opacity="1" stop-color="rgb(0%, 0%, 0%)" offset="0.15625"/><stop stop-opacity="1" stop-color="rgb(0%, 0%, 0%)" offset="0.164063"/><stop stop-opacity="1" stop-color="rgb(0.1297%, 0%, 0.250244%)" offset="0.167969"/><stop stop-opacity="1" stop-color="rgb(0.259399%, 0%, 0.502014%)" offset="0.171875"/><stop stop-opacity="1" stop-color="rgb(0.549316%, 0%, 1.060486%)" offset="0.175781"/><stop stop-opacity="1" stop-color="rgb(0.839233%, 0%, 1.618958%)" offset="0.179688"/><stop stop-opacity="1" stop-color="rgb(1.12915%, 0%, 2.177429%)" offset="0.183594"/><stop stop-opacity="1" stop-color="rgb(1.419067%, 0%, 2.737427%)" offset="0.1875"/><stop stop-opacity="1" stop-color="rgb(1.707458%, 0%, 3.295898%)" offset="0.191406"/><stop stop-opacity="1" stop-color="rgb(1.997375%, 0%, 3.85437%)" offset="0.195313"/><stop stop-opacity="1" stop-color="rgb(2.287292%, 0%, 4.412842%)" offset="0.199219"/><stop stop-opacity="1" stop-color="rgb(2.577209%, 0%, 4.971313%)" offset="0.203125"/><stop stop-opacity="1" stop-color="rgb(2.867126%, 0%, 5.529785%)" offset="0.207031"/><stop stop-opacity="1" stop-color="rgb(3.157043%, 0%, 6.089783%)" offset="0.210938"/><stop stop-opacity="1" stop-color="rgb(3.445435%, 0%, 6.648254%)" offset="0.214844"/><stop stop-opacity="1" stop-color="rgb(3.735352%, 0%, 7.206726%)" offset="0.21875"/><stop stop-opacity="1" stop-color="rgb(4.025269%, 0%, 7.765198%)" offset="0.222656"/><stop stop-opacity="1" stop-color="rgb(4.315186%, 0%, 8.325195%)" offset="0.226563"/><stop stop-opacity="1" stop-color="rgb(4.605103%, 0%, 8.883667%)" offset="0.230469"/><stop stop-opacity="1" stop-color="rgb(4.89502%, 0%, 9.442139%)" offset="0.234375"/><stop stop-opacity="1" stop-color="rgb(5.184937%, 0%, 10.00061%)" offset="0.238281"/><stop stop-opacity="1" stop-color="rgb(5.474854%, 0%, 10.560608%)" offset="0.242188"/><stop stop-opacity="1" stop-color="rgb(5.679321%, 0%, 10.969543%)" offset="0.246094"/><stop stop-opacity="1" stop-color="rgb(5.885315%, 0%, 11.380005%)" offset="0.25"/><stop stop-opacity="1" stop-color="rgb(6.088257%, 0%, 11.785889%)" offset="0.253906"/><stop stop-opacity="1" stop-color="rgb(6.292725%, 0%, 12.193298%)" offset="0.257812"/><stop stop-opacity="1" stop-color="rgb(6.495667%, 0%, 12.599182%)" offset="0.261719"/><stop stop-opacity="1" stop-color="rgb(6.698608%, 0%, 13.005066%)" offset="0.265625"/><stop stop-opacity="1" stop-color="rgb(6.90155%, 0%, 13.41095%)" offset="0.269531"/><stop stop-opacity="1" stop-color="rgb(7.106018%, 0%, 13.818359%)" offset="0.273438"/><stop stop-opacity="1" stop-color="rgb(7.30896%, 0%, 14.224243%)" offset="0.277344"/><stop stop-opacity="1" stop-color="rgb(7.511902%, 0%, 14.630127%)" offset="0.28125"/><stop stop-opacity="1" stop-color="rgb(7.714844%, 0%, 15.036011%)" offset="0.285156"/><stop stop-opacity="1" stop-color="rgb(7.919312%, 0%, 15.44342%)" offset="0.289062"/><stop stop-opacity="1" stop-color="rgb(8.122253%, 0%, 15.849304%)" offset="0.292969"/><stop stop-opacity="1" stop-color="rgb(8.325195%, 0%, 16.255188%)" offset="0.296875"/><stop stop-opacity="1" stop-color="rgb(8.528137%, 0%, 16.661072%)" offset="0.300781"/><stop stop-opacity="1" stop-color="rgb(8.732605%, 0%, 17.068481%)" offset="0.304688"/><stop stop-opacity="1" stop-color="rgb(8.935547%, 0%, 17.474365%)" offset="0.308594"/><stop stop-opacity="1" stop-color="rgb(9.138489%, 0%, 17.880249%)" offset="0.3125"/><stop stop-opacity="1" stop-color="rgb(9.341431%, 0%, 18.286133%)" offset="0.316406"/><stop stop-opacity="1" stop-color="rgb(9.545898%, 0%, 18.693542%)" offset="0.320313"/><stop stop-opacity="1" stop-color="rgb(9.74884%, 0%, 19.099426%)" offset="0.324219"/><stop stop-opacity="1" stop-color="rgb(9.951782%, 0%, 19.50531%)" offset="0.328125"/><stop stop-opacity="1" stop-color="rgb(10.136414%, 0%, 19.868469%)" offset="0.332031"/><stop stop-opacity="1" stop-color="rgb(10.321045%, 0%, 20.231628%)" offset="0.335938"/><stop stop-opacity="1" stop-color="rgb(10.475159%, 0%, 20.526123%)" offset="0.339844"/><stop stop-opacity="1" stop-color="rgb(10.630798%, 0%, 20.820618%)" offset="0.34375"/><stop stop-opacity="1" stop-color="rgb(10.786438%, 0%, 21.115112%)" offset="0.347656"/><stop stop-opacity="1" stop-color="rgb(10.942078%, 0%, 21.409607%)" offset="0.351563"/><stop stop-opacity="1" stop-color="rgb(11.096191%, 0%, 21.704102%)" offset="0.355469"/><stop stop-opacity="1" stop-color="rgb(11.251831%, 0%, 22.000122%)" offset="0.359375"/><stop stop-opacity="1" stop-color="rgb(11.405945%, 0%, 22.294617%)" offset="0.363281"/><stop stop-opacity="1" stop-color="rgb(11.561584%, 0%, 22.589111%)" offset="0.367188"/><stop stop-opacity="1" stop-color="rgb(11.717224%, 0%, 22.883606%)" offset="0.371094"/><stop stop-opacity="1" stop-color="rgb(11.872864%, 0%, 23.179626%)" offset="0.375"/><stop stop-opacity="1" stop-color="rgb(12.026978%, 0%, 23.474121%)" offset="0.378906"/><stop stop-opacity="1" stop-color="rgb(12.182617%, 0%, 23.768616%)" offset="0.382813"/><stop stop-opacity="1" stop-color="rgb(12.336731%, 0%, 24.06311%)" offset="0.386719"/><stop stop-opacity="1" stop-color="rgb(12.492371%, 0%, 24.359131%)" offset="0.390625"/><stop stop-opacity="1" stop-color="rgb(12.64801%, 0%, 24.653625%)" offset="0.394531"/><stop stop-opacity="1" stop-color="rgb(12.80365%, 0%, 24.94812%)" offset="0.398438"/><stop stop-opacity="1" stop-color="rgb(12.957764%, 0%, 25.242615%)" offset="0.402344"/><stop stop-opacity="1" stop-color="rgb(13.113403%, 0%, 25.538635%)" offset="0.40625"/><stop stop-opacity="1" stop-color="rgb(13.269043%, 0%, 25.83313%)" offset="0.410156"/><stop stop-opacity="1" stop-color="rgb(13.424683%, 0%, 26.127625%)" offset="0.414062"/><stop stop-opacity="1" stop-color="rgb(13.578796%, 0%, 26.422119%)" offset="0.417969"/><stop stop-opacity="1" stop-color="rgb(13.734436%, 0%, 26.71814%)" offset="0.421875"/><stop stop-opacity="1" stop-color="rgb(13.88855%, 0%, 27.012634%)" offset="0.425781"/><stop stop-opacity="1" stop-color="rgb(14.044189%, 0%, 27.307129%)" offset="0.429687"/><stop stop-opacity="1" stop-color="rgb(14.147949%, 0%, 27.500916%)" offset="0.4375"/><stop stop-opacity="1" stop-color="rgb(14.337158%, 0%, 27.854919%)" offset="0.445313"/><stop stop-opacity="1" stop-color="rgb(14.511108%, 0%, 28.178406%)" offset="0.453125"/><stop stop-opacity="1" stop-color="rgb(14.685059%, 0%, 28.501892%)" offset="0.460938"/><stop stop-opacity="1" stop-color="rgb(14.857483%, 0%, 28.823853%)" offset="0.46875"/><stop stop-opacity="1" stop-color="rgb(15.031433%, 0%, 29.147339%)" offset="0.476563"/><stop stop-opacity="1" stop-color="rgb(15.205383%, 0%, 29.470825%)" offset="0.484375"/><stop stop-opacity="1" stop-color="rgb(15.377808%, 0%, 29.792786%)" offset="0.492188"/><stop stop-opacity="1" stop-color="rgb(15.551758%, 0%, 30.116272%)" offset="0.5"/><stop stop-opacity="1" stop-color="rgb(15.725708%, 0%, 30.439758%)" offset="0.507813"/><stop stop-opacity="1" stop-color="rgb(15.899658%, 0%, 30.761719%)" offset="0.515625"/><stop stop-opacity="1" stop-color="rgb(16.072083%, 0%, 31.085205%)" offset="0.523438"/><stop stop-opacity="1" stop-color="rgb(16.246033%, 0%, 31.408691%)" offset="0.53125"/><stop stop-opacity="1" stop-color="rgb(16.419983%, 0%, 31.730652%)" offset="0.539063"/><stop stop-opacity="1" stop-color="rgb(16.592407%, 0%, 32.054138%)" offset="0.546875"/><stop stop-opacity="1" stop-color="rgb(16.766357%, 0%, 32.376099%)" offset="0.554688"/><stop stop-opacity="1" stop-color="rgb(16.896057%, 0%, 32.623291%)" offset="0.5625"/><stop stop-opacity="1" stop-color="rgb(17.021179%, 0%, 32.875061%)" offset="0.578125"/><stop stop-opacity="1" stop-color="rgb(17.1875%, 0%, 33.206177%)" offset="0.59375"/><stop stop-opacity="1" stop-color="rgb(17.353821%, 0%, 33.537292%)" offset="0.609375"/><stop stop-opacity="1" stop-color="rgb(17.518616%, 0%, 33.868408%)" offset="0.625"/><stop stop-opacity="1" stop-color="rgb(17.684937%, 0%, 34.199524%)" offset="0.640625"/><stop stop-opacity="1" stop-color="rgb(17.849731%, 0%, 34.532166%)" offset="0.651228"/><stop stop-opacity="1" stop-color="rgb(17.933655%, 0%, 34.698486%)" offset="0.65625"/><stop stop-opacity="1" stop-color="rgb(18.016052%, 0%, 34.863281%)" offset="0.671875"/><stop stop-opacity="1" stop-color="rgb(18.180847%, 0%, 35.194397%)" offset="0.6875"/><stop stop-opacity="1" stop-color="rgb(18.347168%, 0%, 35.525513%)" offset="0.703125"/><stop stop-opacity="1" stop-color="rgb(18.450928%, 0%, 35.720825%)" offset="0.71875"/><stop stop-opacity="1" stop-color="rgb(18.515015%, 0%, 35.81543%)" offset="0.75"/><stop stop-opacity="1" stop-color="rgb(18.643188%, 0%, 36.006165%)" offset="0.8125"/><stop stop-opacity="1" stop-color="rgb(18.815613%, 0%, 36.260986%)" offset="0.875"/><stop stop-opacity="1" stop-color="rgb(18.986511%, 0%, 36.514282%)" offset="0.9375"/><stop stop-opacity="1" stop-color="rgb(19.146729%, 0%, 36.750793%)" offset="1"/></linearGradient><clipPath id="050fd08b73"><path d="M 551 550.492188 L 721 550.492188 L 721 653 L 551 653 Z M 551 550.492188 " clip-rule="nonzero"/></clipPath><clipPath id="334a195b5c"><path d="M 782 550.492188 L 924 550.492188 L 924 654.742188 L 782 654.742188 Z M 782 550.492188 " clip-rule="nonzero"/></clipPath><clipPath id="1aad21389b"><path d="M 931 552 L 1062.496094 552 L 1062.496094 653 L 931 653 Z M 931 552 " clip-rule="nonzero"/></clipPath><clipPath id="82e4609e85"><path d="M 0.679688 23 L 60 23 L 60 71 L 0.679688 71 Z M 0.679688 23 " clip-rule="nonzero"/></clipPath><clipPath id="88416fcd36"><rect x="0" width="373" y="0" height="86"/></clipPath></defs><g clip-path="url(#925f4b966e)"><g clip-path="url(#068f37327f)"><path fill="url(#1fbe78bce0)" d="M 242.050781 550.492188 L 242.050781 636.613281 L 402.609375 636.613281 L 402.609375 550.492188 Z M 242.050781 550.492188 " fill-rule="nonzero"/></g></g><g clip-path="url(#3f812a1306)"><g clip-path="url(#5c03b891ad)"><path fill="url(#aa30321763)" d="M 344.582031 568.621094 L 344.582031 654.742188 L 505.140625 654.742188 L 505.140625 568.621094 Z M 344.582031 568.621094 " fill-rule="nonzero"/></g></g><g clip-path="url(#050fd08b73)"><path fill="#31005e" d="M 551.199219 652.839844 L 551.199219 577.484375 C 551.199219 570.058594 553.820312 563.6875 559.066406 558.371094 C 564.371094 553.121094 570.734375 550.492188 578.148438 550.492188 L 580.140625 550.492188 C 588.640625 550.492188 595.90625 553.511719 601.933594 559.550781 C 605.25 562.871094 607.660156 566.585938 609.167969 570.691406 L 636.027344 624.582031 L 662.886719 570.691406 C 664.394531 566.585938 666.835938 562.871094 670.214844 559.550781 C 676.242188 553.511719 683.507812 550.492188 692.007812 550.492188 L 693.910156 550.492188 C 701.382812 550.492188 707.746094 553.121094 712.992188 558.371094 C 718.296875 563.6875 720.949219 570.054688 720.949219 577.484375 L 720.949219 652.839844 L 690.109375 652.839844 L 690.109375 589.078125 C 690.109375 588.050781 689.71875 587.144531 688.933594 586.359375 C 688.148438 585.636719 687.246094 585.273438 686.21875 585.273438 C 685.675781 585.273438 685.164062 585.363281 684.683594 585.546875 C 684.261719 585.726562 683.867188 586 683.507812 586.359375 L 683.417969 586.359375 L 650.226562 652.839844 L 621.917969 652.839844 L 606.453125 621.953125 L 588.640625 586.359375 C 588.277344 586 587.855469 585.726562 587.371094 585.546875 C 586.890625 585.363281 586.410156 585.273438 585.925781 585.273438 C 584.839844 585.273438 583.90625 585.636719 583.121094 586.359375 C 582.398438 587.144531 582.035156 588.050781 582.035156 589.078125 L 582.035156 652.839844 Z M 551.199219 652.839844 " fill-opacity="1" fill-rule="nonzero"/></g><path fill="#31005e" d="M 736.414062 552.394531 L 767.253906 552.394531 L 767.253906 652.839844 L 736.414062 652.839844 Z M 736.414062 552.394531 " fill-opacity="1" fill-rule="nonzero"/><g clip-path="url(#334a195b5c)"><path fill="#31005e" d="M 894.589844 654.742188 C 886.085938 654.742188 878.820312 651.753906 872.792969 645.777344 C 872.550781 645.59375 872.34375 645.382812 872.160156 645.140625 L 872.070312 645.140625 L 870.984375 643.78125 C 870.742188 643.542969 870.53125 643.300781 870.351562 643.058594 L 833.453125 598.769531 L 819.527344 582.011719 C 819.34375 581.894531 819.132812 581.769531 818.894531 581.648438 C 818.410156 581.46875 817.929688 581.378906 817.445312 581.378906 C 816.359375 581.378906 815.425781 581.769531 814.640625 582.554688 C 813.917969 583.277344 813.554688 584.183594 813.554688 585.273438 L 813.554688 652.839844 L 782.71875 652.839844 L 782.71875 577.484375 C 782.71875 570.058594 785.339844 563.6875 790.585938 558.371094 C 795.890625 553.121094 802.253906 550.492188 809.667969 550.492188 L 811.65625 550.492188 C 820.15625 550.492188 827.421875 553.511719 833.453125 559.550781 C 833.632812 559.730469 833.816406 559.910156 833.996094 560.09375 L 834.085938 560.09375 L 835.261719 561.453125 C 835.441406 561.695312 835.625 561.933594 835.804688 562.175781 L 886.628906 623.222656 C 886.808594 623.40625 887.019531 623.527344 887.261719 623.585938 C 887.746094 623.765625 888.257812 623.859375 888.800781 623.859375 C 889.824219 623.859375 890.730469 623.496094 891.515625 622.769531 C 892.296875 621.984375 892.6875 621.082031 892.6875 620.054688 L 892.6875 552.394531 L 923.527344 552.394531 L 923.527344 627.753906 C 923.527344 635.242188 920.871094 641.609375 915.570312 646.863281 C 910.324219 652.117188 903.960938 654.742188 896.488281 654.742188 Z M 894.589844 654.742188 " fill-opacity="1" fill-rule="nonzero"/></g><g clip-path="url(#1aad21389b)"><path fill="#31005e" d="M 981.410156 652.839844 L 981.410156 575.582031 L 931.304688 575.582031 L 931.304688 552.394531 L 1062.441406 552.394531 L 1062.441406 575.582031 L 1012.246094 575.582031 L 1012.246094 652.839844 Z M 981.410156 652.839844 " fill-opacity="1" fill-rule="nonzero"/></g><g transform="matrix(1, 0, 0, 1, 583, 677)"><g clip-path="url(#88416fcd36)"><g clip-path="url(#82e4609e85)"><g fill="#2f005b" fill-opacity="1"><g transform="translate(0.784397, 70.468094)"><g><path d="M 41.125 -10.734375 C 42.101562 -10.734375 42.941406 -11.066406 43.640625 -11.734375 C 44.335938 -12.460938 44.6875 -13.316406 44.6875 -14.296875 C 44.6875 -15.273438 44.335938 -16.113281 43.640625 -16.8125 C 42.941406 -17.507812 42.101562 -17.859375 41.125 -17.859375 L 14.296875 -17.859375 L 14.296875 -10.734375 Z M 39.3125 -28.59375 C 40.289062 -28.59375 41.144531 -28.941406 41.875 -29.640625 C 42.570312 -30.335938 42.921875 -31.1875 42.921875 -32.1875 C 42.921875 -33.164062 42.570312 -34.003906 41.875 -34.703125 C 41.144531 -35.398438 40.289062 -35.75 39.3125 -35.75 L 14.296875 -35.75 L 14.296875 -28.59375 Z M 0 0 L 0 -46.484375 L 50.046875 -46.484375 C 52.035156 -46.484375 53.726562 -45.785156 55.125 -44.390625 C 56.519531 -42.992188 57.21875 -41.300781 57.21875 -39.3125 L 57.21875 -31.265625 C 57.21875 -29.304688 56.519531 -27.617188 55.125 -26.203125 C 53.726562 -24.828125 52.035156 -24.140625 50.046875 -24.140625 L 51.84375 -24.140625 C 53.800781 -24.140625 55.492188 -23.441406 56.921875 -22.046875 C 58.316406 -20.617188 59.015625 -18.925781 59.015625 -16.96875 L 59.015625 -7.125 C 59.015625 -5.164062 58.316406 -3.472656 56.921875 -2.046875 C 55.492188 -0.679688 53.800781 0 51.84375 0 Z M 0 0 "/></g></g></g></g><g fill="#2f005b" fill-opacity="1"><g transform="translate(61.663474, 70.468094)"><g><path d="M 0 0 L 0 -46.484375 L 14.296875 -46.484375 L 14.296875 0 Z M 0 0 "/></g></g></g><g fill="#2f005b" fill-opacity="1"><g transform="translate(78.744528, 70.468094)"><g><path d="M -1.765625 0 L -1.765625 -10.734375 L 31.5625 -35.75 L 0 -35.75 L 0 -46.484375 L 54.53125 -46.484375 L 54.53125 -35.75 L 21.125 -10.734375 L 55.40625 -10.734375 L 55.40625 0 Z M -1.765625 0 "/></g></g></g><g fill="#2f005b" fill-opacity="1"><g transform="translate(136.061079, 70.468094)"><g><path d="M 19.65625 0 L 19.65625 -35.75 L -3.5625 -35.75 L -3.5625 -46.484375 L 57.21875 -46.484375 L 57.21875 -35.75 L 33.953125 -35.75 L 33.953125 0 Z M 19.65625 0 "/></g></g></g><g fill="#2f005b" fill-opacity="1"><g transform="translate(192.455566, 70.468094)"><g><path d="M 48.28125 -28.59375 L 48.28125 -32.1875 C 48.28125 -33.164062 47.929688 -34.003906 47.234375 -34.703125 C 46.515625 -35.398438 45.664062 -35.75 44.6875 -35.75 L 17.859375 -35.75 C 16.878906 -35.75 16.039062 -35.398438 15.34375 -34.703125 C 14.644531 -34.003906 14.296875 -33.164062 14.296875 -32.1875 L 14.296875 -28.59375 Z M 14.296875 0 C 10.328125 0 6.957031 -1.394531 4.1875 -4.1875 C 1.394531 -6.988281 0 -10.359375 0 -14.296875 L 0 -32.1875 C 0 -36.125 1.394531 -39.492188 4.1875 -42.296875 C 6.988281 -45.085938 10.359375 -46.484375 14.296875 -46.484375 L 48.28125 -46.484375 C 52.226562 -46.484375 55.597656 -45.085938 58.390625 -42.296875 C 61.179688 -39.492188 62.578125 -36.125 62.578125 -32.1875 L 62.578125 -25.03125 C 62.578125 -23.039062 61.878906 -21.347656 60.484375 -19.953125 C 59.085938 -18.554688 57.394531 -17.859375 55.40625 -17.859375 L 14.296875 -17.859375 L 14.296875 -14.296875 C 14.296875 -13.316406 14.644531 -12.460938 15.34375 -11.734375 C 16.039062 -11.066406 16.878906 -10.734375 17.859375 -10.734375 L 61.703125 -10.734375 L 61.703125 0 Z M 14.296875 0 "/></g></g></g><g fill="#2f005b" fill-opacity="1"><g transform="translate(256.897153, 70.468094)"><g><path d="M 14.296875 0 C 10.328125 0 6.957031 -1.394531 4.1875 -4.1875 C 1.394531 -6.988281 0 -10.359375 0 -14.296875 L 0 -32.1875 C 0 -36.125 1.394531 -39.492188 4.1875 -42.296875 C 6.988281 -45.085938 10.359375 -46.484375 14.296875 -46.484375 L 51.84375 -46.484375 L 51.84375 -35.75 L 21.46875 -35.75 C 19.476562 -35.75 17.785156 -35.050781 16.390625 -33.65625 C 14.992188 -32.257812 14.296875 -30.570312 14.296875 -28.59375 L 14.296875 -17.859375 C 14.296875 -15.898438 14.992188 -14.207031 16.390625 -12.78125 C 17.785156 -11.414062 19.476562 -10.734375 21.46875 -10.734375 L 51.84375 -10.734375 L 51.84375 0 Z M 14.296875 0 "/></g></g></g><g fill="#2f005b" fill-opacity="1"><g transform="translate(309.729131, 70.468094)"><g><path d="M 0 0 L 0 -46.484375 L 14.296875 -46.484375 L 14.296875 -28.59375 L 44.6875 -28.59375 L 44.6875 -46.484375 L 59.015625 -46.484375 L 59.015625 0 L 44.6875 0 L 44.6875 -17.859375 L 14.296875 -17.859375 L 14.296875 0 Z M 0 0 "/></g></g></g></g></g></svg>