<svg id="logo" xmlns="http://www.w3.org/2000/svg" width="113.163" height="34.621" viewBox="0 0 113.163 34.621">
                              <g id="logo-group-2">
                                <path id="Path_22" data-name="Path 22" d="M193.5,31.008h3.178v-28H193.5V0h9.734V3.011h-3.245v28h3.245v3.011H193.5Z" transform="translate(-128.774)" fill="#c3d600"></path>
                                <path id="Path_23" data-name="Path 23" d="M268.684,55.7c-.636,8.028-5.988,12.377-13.815,12.377h-5.72a.937.937,0,0,1-1.07-1.07V55.7H244.7V68.144c0,2.074.87,2.944,2.944,2.944h7.56c9.734,0,16.357-5.586,17.026-15.387Z" transform="translate(-162.847 -37.068)" fill="#c3d600"></path>
                                <path id="Path_24" data-name="Path 24" d="M238.444,15.354h3.378V3.011h6.79c7.794,0,13.179,4.349,13.815,12.343h3.546C265.3,5.62,258.648,0,248.948,0H235.3V3.011h3.144Z" transform="translate(-156.591)" fill="#c3d600"></path>
                              </g>
                              <g id="logo-group-1">
                                <path id="Path_19" data-name="Path 19" d="M3.178,18.3H0V15.524H3.245V8.8H6.489v6.724h6.088v2.743H6.489V30.643c0,5.72,3.613,6.422,5.452,6.422a5.653,5.653,0,0,0,1.1-.1v3.011a9.433,9.433,0,0,1-1.4.1c-2.81,0-8.463-.9-8.463-9.032Z" transform="translate(0 -5.856)" fill="#1a1a1a"></path>
                                <path id="Path_25" data-name="Path 25" d="M278.5,46.9v5.018h.033v.033h3.077V46.9Z" transform="translate(-185.341 -31.212)" fill="#1a1a1a"></path>
                                <path id="Path_20" data-name="Path 20" d="M50.977,32.281a.97.97,0,0,0-1.07-1.07H47.9V28.368h3.378c2.04,0,2.944.836,2.944,2.743V32.75a17.562,17.562,0,0,1-.1,1.84h.1c1.171-3.68,3.88-6.489,7.694-6.489a6.59,6.59,0,0,1,1.3.134v3.245a8.3,8.3,0,0,0-1.2-.1c-3.445.033-5.988,2.743-7.058,6.322a16.056,16.056,0,0,0-.669,4.75V52.719H50.977Z" transform="translate(-31.877 -18.7)" fill="#1a1a1a"></path>
                                <path id="Path_21" data-name="Path 21" d="M104.077,32.814a.97.97,0,0,0-1.07-1.07H101V28.9h3.445c2.074,0,2.944.87,2.944,2.843V43.518c0,3.813.636,7.225,5.319,7.225,5.519,0,8.965-4.884,8.965-10.169V28.9h3.278V49.338a.937.937,0,0,0,1.07,1.07h2.04v2.843h-3.345c-2.04,0-2.944-.87-2.944-2.709v-1.1a15.619,15.619,0,0,1,.1-1.739h-.134a10.37,10.37,0,0,1-9.466,6.155c-5.753,0-8.162-3.111-8.162-9.433Z" transform="translate(-67.215 -19.233)" fill="#1a1a1a"></path>
                                <path id="Path_2713" data-name="Path 2713" d="M0,0H3.713V3.87H0Z" transform="translate(109.45 30.139)" fill="#1a1a1a"></path>
                                <path id="Path_26" data-name="Path 26" d="M280.551,39.476a2.576,2.576,0,1,1-2.576-2.576,2.576,2.576,0,0,1,2.576,2.576" transform="translate(-183.278 -24.557)" fill="#1a1a1a"></path>
                              </g>
                            </svg>